<?xml version="1.0" encoding="UTF-8"?>
<!DOCTYPE svg PUBLIC "-//W3C//DTD SVG 1.1//EN" "http://www.w3.org/Graphics/SVG/1.1/DTD/svg11.dtd">
<!-- Creator: CorelDRAW 2021.5 -->
<svg xmlns="http://www.w3.org/2000/svg" xml:space="preserve" width="84.6666mm" height="84.6666mm" version="1.1" style="shape-rendering:geometricPrecision; text-rendering:geometricPrecision; image-rendering:optimizeQuality; fill-rule:evenodd; clip-rule:evenodd"
viewBox="0 0 8466.66 8466.66"
 xmlns:xlink="http://www.w3.org/1999/xlink"
 xmlns:xodm="http://www.corel.com/coreldraw/odm/2003">
 <defs>
  <style type="text/css">
   <![CDATA[
    .fil0 {fill:none}
    .fil1 {fill:white}
   ]]>
  </style>
 </defs>
 <g id="Layer_x0020_1">
  <metadata id="CorelCorpID_0Corel-Layer"/>
  <rect class="fil0" x="-0.01" y="-0.02" width="8466.67" height="8466.67"/>
  <path class="fil1" d="M4483.05 6471.53c75.15,-110.38 1591.69,-1623.5 1687.76,-1683.19 -124.1,867.26 -831.95,1524.62 -1687.76,1683.19zm-2255.05 -4524.15c1298.06,44.85 2454.25,-265.12 3377.17,676.6 146.68,149.66 423.81,570.57 494.46,853.38 -166.71,104.65 -2240.62,2238.91 -2572.14,2570.91 -558.83,559.63 -264.33,410.25 -1294.52,421.35l-4.97 -4522.24zm-1140.89 5699.94c799.46,19.13 1622.15,2.23 2424.12,1.67 888.29,-0.59 1354.88,14.87 2082.77,-340.11 2378.16,-1159.73 2407.34,-4910.26 -45.09,-6144.51 -703.92,-354.26 -1199.33,-351.2 -2071.36,-351.44 -796.84,-0.2 -1595.95,-6.2 -2393.82,0.4l3.38 6833.99z"/>
 </g>
</svg>
